<?xml version="1.0" encoding="UTF-8"?>
<svg width="703px" height="682px" viewBox="0 0 703 682" version="1.1" xmlns="http://www.w3.org/2000/svg" xmlns:xlink="http://www.w3.org/1999/xlink">
    <!-- Generator: Sketch 52.6 (67491) - http://www.bohemiancoding.com/sketch -->
    <title>kubernetes</title>
    <desc>Created with Sketch.</desc>
    <g id="Page-1" stroke="none" stroke-width="1" fill="none" fill-rule="evenodd">
        <g id="kubernetes">
            <path d="M348.986,0.06 C342.772716,0.372978515 336.685009,1.91343414 331.08,4.591 L86.736,121.341 C73.9253507,127.459582 64.6208166,139.030624 61.456,152.779 L1.174,415.029 C-1.6382081,427.236329 0.650153106,440.052811 7.518,450.56 C8.34215709,451.83156 9.22855016,453.062365 10.174,454.248 L179.299,664.528 C188.166793,675.550323 201.612201,681.968461 215.83,681.966 L487.049,681.904 C501.261354,681.914231 514.705791,675.508333 523.58,664.498 L692.643,454.185 C701.515453,443.156893 704.839316,428.720724 701.673,414.966 L641.3,152.716 C638.134688,138.967801 628.829794,127.397137 616.019,121.279 L371.643,4.59 C364.59233,1.22200247 356.801657,-0.335650694 348.986,0.06 Z" id="Path" fill="#000000"></path>
            <path d="M351.408,89.307 C343.331,89.308 336.782,96.583 336.783,105.557 C336.783,105.695 336.811,105.827 336.813,105.963 C336.802,107.183 336.743,108.652 336.783,109.713 C336.975,114.889 338.103,118.851 338.783,123.62 C340.013,133.826 341.043,142.287 340.408,150.151 C339.788,153.116 337.605,155.828 335.658,157.713 L335.314,163.901 C326.416981,164.633332 317.582505,165.990683 308.876,167.963 C270.902,176.586 238.206,196.147 213.314,222.557 C211.537231,221.330308 209.776744,220.080199 208.033,218.807 C205.421,219.16 202.783,219.966 199.345,217.963 C192.8,213.558 186.839,207.477 179.626,200.151 C176.321,196.647 173.928,193.31 170.001,189.932 C169.11,189.165 167.749,188.128 166.751,187.338 C163.681,184.891 160.061,183.614 156.564,183.495 C152.068,183.341 147.74,185.099 144.908,188.651 C139.872,194.966 141.484,204.619 148.501,210.213 C148.572,210.27 148.648,210.314 148.72,210.37 C149.684,211.151 150.865,212.153 151.751,212.807 C155.918,215.884 159.724,217.459 163.876,219.901 C172.623,225.303 179.875,229.781 185.626,235.182 C187.872,237.576 188.265,241.795 188.564,243.62 L193.251,247.807 C168.158,285.571 156.544,332.217 163.408,379.745 L157.283,381.526 C155.668,383.611 153.387,386.891 151.001,387.87 C143.476,390.24 135.007,391.11 124.783,392.182 C119.983,392.582 115.84,392.343 110.751,393.307 C109.631,393.519 108.071,393.926 106.845,394.213 L106.72,394.245 C106.653,394.26 106.565,394.293 106.501,394.307 C97.881,396.39 92.344,404.313 94.126,412.12 C95.909,419.928 104.329,424.676 113.001,422.807 C113.064,422.793 113.155,422.79 113.22,422.776 C113.318,422.754 113.404,422.706 113.501,422.682 C114.711,422.417 116.225,422.122 117.283,421.839 C122.286,420.499 125.909,418.531 130.408,416.807 C140.084,413.337 148.099,410.437 155.908,409.307 C159.168,409.052 162.605,411.319 164.314,412.276 L170.689,411.182 C185.359,456.665 216.103,493.427 255.033,516.495 L252.376,522.87 C253.334,525.345 254.39,528.694 253.676,531.14 C250.838,538.5 245.976,546.27 240.439,554.932 C237.758,558.934 235.014,562.04 232.595,566.62 C232.016,567.716 231.279,569.4 230.72,570.557 C226.961,578.6 229.718,587.862 236.939,591.339 C244.205,594.836 253.223,591.147 257.126,583.089 C257.132,583.077 257.152,583.069 257.157,583.057 C257.161,583.048 257.153,583.035 257.157,583.027 C257.713,581.884 258.501,580.382 258.97,579.307 C261.042,574.56 261.732,570.492 263.189,565.901 C267.059,556.181 269.184,545.982 274.511,539.627 C275.97,537.887 278.348,537.217 280.814,536.557 L284.126,530.557 C318.064,543.584 356.053,547.08 394.001,538.464 C402.529965,536.52432 410.914623,533.997295 419.095,530.901 C420.025,532.552 421.756,535.727 422.22,536.526 C424.726,537.341 427.46,537.762 429.689,541.057 C433.674,547.867 436.399,555.922 439.72,565.651 C441.177,570.242 441.898,574.311 443.97,579.057 C444.442,580.139 445.226,581.662 445.782,582.807 C449.677,590.892 458.725,594.594 466.002,591.089 C473.221,587.611 475.981,578.349 472.22,570.307 C471.661,569.149 470.893,567.466 470.314,566.37 C467.894,561.79 465.151,558.715 462.47,554.714 C456.933,546.052 452.34,538.856 449.501,531.494 C448.314,527.698 449.701,525.337 450.626,522.87 C450.072,522.235 448.887,518.65 448.189,516.964 C488.646,493.075 518.487,454.942 532.501,410.901 C534.394,411.199 537.683,411.781 538.751,411.995 C540.951,410.545 542.973,408.651 546.939,408.964 C554.747,410.093 562.762,412.994 572.439,416.464 C576.937,418.187 580.56,420.187 585.564,421.526 C586.621,421.809 588.136,422.073 589.345,422.339 C589.442,422.362 589.528,422.41 589.626,422.432 C589.692,422.447 589.782,422.449 589.845,422.464 C598.517,424.33 606.939,419.584 608.72,411.776 C610.5,403.969 604.966,396.044 596.345,393.964 C595.091,393.678 593.313,393.194 592.095,392.964 C587.005,392 582.864,392.237 578.064,391.839 C567.839,390.767 559.37,389.896 551.845,387.526 C548.777,386.336 546.594,382.685 545.532,381.182 L539.626,379.464 C542.688,357.309 541.863,334.252 536.564,311.182 C531.215,287.898 521.764,266.602 509.157,247.839 C510.672,246.461 513.534,243.928 514.345,243.182 C514.582,240.558 514.378,237.807 517.095,234.901 C522.846,229.501 530.098,225.022 538.845,219.62 C542.997,217.177 546.835,215.603 551.001,212.526 C551.943,211.83 553.231,210.728 554.22,209.932 C561.235,204.336 562.85,194.684 557.814,188.37 C552.777,182.056 543.017,181.46 536.001,187.057 C535.003,187.848 533.648,188.88 532.751,189.651 C528.825,193.029 526.4,196.365 523.095,199.87 C515.882,207.196 509.921,213.308 503.376,217.714 C500.54,219.364 496.386,218.794 494.501,218.682 L488.939,222.651 C457.219,189.391 414.034,168.126 367.533,163.995 C367.403,162.046 367.233,158.524 367.189,157.463 C365.285,155.642 362.985,154.087 362.408,150.151 C361.771,142.287 362.834,133.826 364.064,123.62 C364.743,118.851 365.871,114.89 366.064,109.713 C366.108,108.537 366.037,106.829 366.033,105.557 C366.032,96.583 359.485,89.307 351.408,89.307 Z M333.095,202.745 L328.751,279.463 L328.439,279.62 C328.147,286.483 322.499,291.963 315.564,291.963 C312.723,291.963 310.101,291.051 307.97,289.495 L307.845,289.557 L244.939,244.963 C264.272,225.953 289.002,211.903 317.501,205.433 C322.649545,204.270576 327.854403,203.373394 333.095,202.745 Z M369.751,202.745 C403.025,206.837 433.796,221.904 457.376,244.995 L394.876,289.307 L394.658,289.214 C389.11,293.265 381.294,292.26 376.97,286.839 C375.260863,284.71212 374.275666,282.094972 374.158,279.369 L374.095,279.339 L369.751,202.745 Z M222.126,273.62 L279.564,324.995 L279.501,325.307 C284.686,329.814 285.451,337.635 281.126,343.057 C279.421219,345.19827 277.079193,346.741409 274.439,347.463 L274.376,347.713 L200.751,368.963 C197.004,334.698 205.08,301.39 222.126,273.62 Z M480.283,273.65 C488.817,287.483 495.279,302.933 499.126,319.682 C502.927,336.23 503.881,352.749 502.314,368.713 L428.314,347.401 L428.251,347.088 C421.625,345.278 417.552,338.537 419.095,331.776 C419.6951,329.116534 421.129569,326.718512 423.189,324.932 L423.158,324.776 L480.283,273.651 L480.283,273.65 Z M339.626,328.963 L363.158,328.963 L377.783,347.245 L372.533,370.057 L351.408,380.213 L330.22,370.026 L324.97,347.213 L339.626,328.963 Z M415.064,391.526 C416.064,391.476 417.059,391.566 418.033,391.745 L418.158,391.588 L494.314,404.463 C483.168,435.777 461.841,462.903 433.345,481.057 L403.783,409.651 L403.876,409.526 C401.161,403.216 403.878,395.816 410.126,392.807 C411.726,392.037 413.397,391.61 415.064,391.526 Z M287.158,391.838 C292.969,391.92 298.182,395.954 299.533,401.87 C300.165,404.64 299.857,407.383 298.813,409.807 L299.033,410.088 L269.783,480.776 C242.435,463.227 220.653,436.952 209.001,404.713 L284.501,391.901 L284.626,392.057 C285.471,391.902 286.327,391.827 287.158,391.838 Z M350.938,422.808 C353.02306,422.735277 355.094161,423.174768 356.97,424.088 C359.53,425.321 361.507,427.262 362.751,429.588 L363.033,429.588 L400.251,496.838 C395.365191,498.471181 390.400636,499.858586 385.376,500.995 C356.912,507.458 328.538,505.499 302.846,496.745 L339.97,429.62 L340.033,429.62 C342.198199,425.571255 346.35081,422.97711 350.939,422.807 L350.938,422.808 Z" id="Shape" stroke="#FFFFFF" stroke-width="0.25" fill="#FFFFFF" fill-rule="nonzero"></path>
        </g>
    </g>
</svg>